<?xml version="1.0" encoding="utf-8"?>
<!-- Generator: Adobe Illustrator 19.2.1, SVG Export Plug-In . SVG Version: 6.00 Build 0)  -->
<svg version="1.1" id="Layer_1" xmlns="http://www.w3.org/2000/svg" xmlns:xlink="http://www.w3.org/1999/xlink" x="0px" y="0px"
	 viewBox="0 0 58.1 52.5" style="enable-background:new 0 0 58.1 52.5;" xml:space="preserve">
<style type="text/css">
	.st0{fill:#005487;}
	.st1{fill:#FFA500;}
</style>
<g>
	<title>area-chart</title>
	<path class="st0" d="M52.1,50.4c-0.2,0-0.4,0-0.5-0.1L4.3,37c-1-0.3-1.6-1.3-1.4-2.4L4,30.2c0.2-0.7,0.8-1.3,1.5-1.4
		c0.1,0,5.5-1.1,9-4c1.7-1.5,2.6-3.3,3.9-6.4c0.7-1.6,1.6-3.5,2.7-5.7c3.9-7.5,13.5-7.8,17.4-6.8c4.2,1.1,11.8,6.6,11.2,14.9
		c-0.2,2.5-0.4,4.5-0.6,6.2c-0.4,3.3-0.7,5.4,0,7.5c1.4,4.3,5.6,8,5.6,8.1c0.6,0.5,0.8,1.3,0.6,2L54,49C53.8,49.8,53,50.4,52.1,50.4
		 M7.2,33.8L50.8,46l0.4-1.4c-1.5-1.5-4.5-4.9-5.8-8.9c-1-3-0.7-5.6-0.2-9.3c0.2-1.7,0.5-3.6,0.6-6c0.4-6.1-5.7-10.1-8.3-10.8
		C35.1,9,27.5,9,24.7,14.5c-1.1,2.1-1.9,3.9-2.6,5.5c-1.5,3.3-2.6,5.7-5,7.8c-3.2,2.7-7.4,4-9.5,4.6L7.2,33.8z"/>
	<path class="st0" d="M27.9,52.1c-4.1,0-7.4-3.3-7.4-7.4c0-0.2,0-0.5,0-0.7c0-0.3,0.2-0.7,0.5-0.9c0.3-0.2,0.6-0.3,1-0.2l11.9,3.2
		c0.3,0.1,0.6,0.3,0.8,0.6c0.1,0.3,0.1,0.7,0,1C33.5,50.4,30.8,52.1,27.9,52.1 M23,45.6c0.4,2.3,2.5,4.1,5,4.1
		c1.5,0,2.9-0.6,3.8-1.7L23,45.6z"/>
	<path class="st0" d="M42.2,5.6c-0.1,0-0.2,0-0.3,0l-5-1.3c-0.3-0.1-0.6-0.3-0.8-0.6c-0.2-0.3-0.2-0.7,0-1c0.6-1.3,1.9-2.2,3.4-2.2
		c1,0,2,0.4,2.7,1.1c0.7,0.7,1.1,1.6,1.1,2.7c0,0,0,0.3,0,0.3c0,0.3-0.2,0.7-0.5,0.9C42.7,5.5,42.4,5.6,42.2,5.6"/>
	<path class="st1" d="M13.7,32.9c1.7-0.8,3.5-1.8,5.1-3.2c2.9-2.4,4.1-5.2,5.7-8.7c0.7-1.6,1.5-3.3,2.5-5.3c1.8-3.5,6.5-3.8,7.9-3.8
		c0.9,0,1.7,0.1,2.1,0.2c1.9,0.5,6.7,3.7,6.4,8.2c-0.2,2.3-0.4,4.2-0.6,5.8C42.2,30,41.8,33,43,36.6c0.7,1.9,1.6,3.8,2.7,5.3
		L13.7,32.9z"/>
</g>
</svg>
