<svg id="Layer_1" data-name="Layer 1" xmlns="http://www.w3.org/2000/svg" viewBox="0 0 44.5 50"><defs><style>.cls-1{fill:#005487;}</style></defs><title>blue-bin</title><path class="cls-1" d="M14.44,20.63h34V15.44H11.6v5.19h2.84ZM21.08,5H38.91a1.92,1.92,0,0,1,1.92,1.92v4.67h9.49a1.92,1.92,0,0,1,1.92,1.92v9a1.92,1.92,0,0,1-1.92,1.92H47.48v28.6A1.92,1.92,0,0,1,45.55,55H14.44a1.92,1.92,0,0,1-1.92-1.92V24.48H9.67a1.92,1.92,0,0,1-1.92-1.92v-9a1.92,1.92,0,0,1,1.92-1.92h9.49V6.92A1.92,1.92,0,0,1,21.08,5h0ZM37,8.85H23v2.41H37V8.85h0ZM23.15,24.48V46.71a1.15,1.15,0,1,1-2.31,0V24.48H16.36V51.15H43.63V24.48H39.16V46.71a1.15,1.15,0,1,1-2.31,0V24.48h-5.7V46.71a1.15,1.15,0,1,1-2.31,0V24.48h-5.7Z" transform="translate(-7.75 -5)"/></svg>