<?xml version="1.0" encoding="utf-8"?>
<!-- Generator: Adobe Illustrator 19.2.1, SVG Export Plug-In . SVG Version: 6.00 Build 0)  -->
<svg version="1.1" id="Layer_1" xmlns="http://www.w3.org/2000/svg" xmlns:xlink="http://www.w3.org/1999/xlink" x="0px" y="0px"
	 viewBox="0 0 50 50" style="enable-background:new 0 0 50 50;" xml:space="preserve">
<style type="text/css">
	.st0{fill:#015788;}
</style>
<title>blue-wrench</title>
<path class="st0" d="M40.4,50c-2.4,0-4.6-0.8-6.4-2.4c-2.6-2.5-9.8-9.7-12-11.9c-1.7,0.3-3.5,0.4-5.2,0.3c-3.2-0.2-6.3-1.3-9-3.1
	c-3.4-2.5-6-6.1-7.2-10.3c-1.2-3.9-0.5-8.4,0.9-9.9c0.3-0.4,0.8-0.6,1.3-0.6c0.5,0,1,0.2,1.3,0.5c1.1,1.2,6.6,6.6,7.3,7.2
	c0.5,0.3,1.1,0.6,1.7,0.7c0.5-0.1,1-0.3,1.3-0.6c0.7-0.6,4.5-4.4,5.4-5.3c0.3-0.4,0.5-0.9,0.5-1.4c0-0.6-0.2-1.1-0.6-1.5
	c-0.7-0.8-7-7.2-7-7.2c-0.7-0.7-0.7-1.9,0-2.6c0,0,0.1-0.1,0.1-0.1c1.8-1.6,5.1-1.8,7.5-1.4s5.6,0.8,10.1,4.8c4.8,4.2,6.7,10.8,5,17
	c2.3,2.3,9.4,9.4,12,12c3.5,3.6,3.5,9.4,0,13C45.5,49,43,50,40.4,50z M22.6,31.9c0.5,0,0.9,0.2,1.3,0.5c0,0,9.5,9.5,12.7,12.5
	c2.3,2.2,6.4,1.7,8.3-0.2c2.1-2.2,2.1-5.7-0.1-7.9C41.6,33.6,32,24,32,24c-0.5-0.5-0.6-1.2-0.4-1.9c0.1-0.3,2.9-8.3-3.7-14.2
	c-3.7-3.3-6-3.6-8.1-3.9c-0.9-0.1-1.7-0.2-2.6-0.1c1.9,2,4.6,4.7,5.1,5.2c1.1,1.1,1.7,2.7,1.6,4.3c-0.1,1.3-0.6,2.6-1.4,3.6
	c-0.7,0.8-4.8,4.9-5.6,5.6c-1,0.9-2.3,1.4-3.7,1.5c-1.5-0.1-2.9-0.6-4.1-1.6c-0.4-0.4-3.2-3.2-5.3-5.2c-0.1,1.4,0,2.9,0.4,4.2
	c1,3.4,3,6.3,5.8,8.4c2.1,1.5,4.6,2.3,7.2,2.4c1.7,0.1,3.5-0.1,5.1-0.4C22.4,31.9,22.5,31.9,22.6,31.9L22.6,31.9z"/>
<path class="st0" d="M40.8,44c-1.9,0-3.4-1.5-3.4-3.4c0-1.9,1.5-3.4,3.4-3.4s3.4,1.5,3.4,3.4v0C44.2,42.5,42.7,44,40.8,44z M40.8,39
	c-0.9,0-1.6,0.7-1.6,1.6c0,0.9,0.7,1.6,1.6,1.6s1.6-0.7,1.6-1.6l0,0C42.4,39.7,41.7,39,40.8,39z"/>
</svg>
