<?xml version="1.0" encoding="utf-8"?>
<!-- Generator: Adobe Illustrator 19.2.1, SVG Export Plug-In . SVG Version: 6.00 Build 0)  -->
<svg version="1.1" id="Layer_1" xmlns="http://www.w3.org/2000/svg" xmlns:xlink="http://www.w3.org/1999/xlink" x="0px" y="0px"
	 viewBox="0 0 58.1 52.5" style="enable-background:new 0 0 58.1 52.5;" xml:space="preserve">
<style type="text/css">
	.st0{fill:#005487;}
	.st1{fill:#9E9E9E;}
</style>
<g>
	<path class="st0" d="M44.7,49.8H13.4c-0.7,0-1.3-0.6-1.3-1.3V15.7c0-0.7,0.6-1.3,1.3-1.3h31.4c0.7,0,1.3,0.6,1.3,1.3v32.8
		C46.1,49.2,45.5,49.8,44.7,49.8 M14.7,47.2h28.8V17H14.7V47.2z"/>
	<path class="st0" d="M49,26.1c-0.7,0-1.3-0.6-1.3-1.3v-4.2c0-0.7,0.6-1.3,1.3-1.3c0.7,0,1.3,0.6,1.3,1.3v4.2
		C50.3,25.5,49.7,26.1,49,26.1"/>
	<path class="st0" d="M48.9,45.3c-0.7,0-1.3-0.6-1.3-1.3v-4.2c0-0.7,0.6-1.3,1.3-1.3c0.7,0,1.3,0.6,1.3,1.3V44
		C50.2,44.7,49.6,45.3,48.9,45.3"/>
	<path class="st0" d="M9.1,27.1c-0.7,0-1.3-0.6-1.3-1.3v-6.3c0-0.7,0.6-1.3,1.3-1.3c0.7,0,1.3,0.6,1.3,1.3v6.3
		C10.4,26.5,9.8,27.1,9.1,27.1"/>
	<path class="st0" d="M9.1,45.6c-0.7,0-1.3-0.6-1.3-1.3V38c0-0.7,0.6-1.3,1.3-1.3c0.7,0,1.3,0.6,1.3,1.3v6.3
		C10.4,45,9.8,45.6,9.1,45.6"/>
	<rect x="20.9" y="23.4" class="st1" width="16.3" height="10.5"/>
	<path class="st0" d="M37.2,34.8H20.9c-0.5,0-0.8-0.4-0.8-0.8V23.4c0-0.5,0.4-0.8,0.8-0.8h16.3c0.5,0,0.8,0.4,0.8,0.8v10.5
		C38.1,34.4,37.7,34.8,37.2,34.8 M21.7,33.1h14.6v-8.9H21.7V33.1z"/>
	<path class="st0" d="M35.9,13c-0.7,0-1.3-0.6-1.3-1.3V4.1c0-0.7,0.6-1.3,1.3-1.3c0.7,0,1.3,0.6,1.3,1.3v7.7
		C37.3,12.5,36.7,13,35.9,13"/>
</g>
</svg>
