<?xml version="1.0" encoding="utf-8"?>
<!-- Generator: Adobe Illustrator 19.2.1, SVG Export Plug-In . SVG Version: 6.00 Build 0)  -->
<svg version="1.1" id="Layer_1" xmlns="http://www.w3.org/2000/svg" xmlns:xlink="http://www.w3.org/1999/xlink" x="0px" y="0px"
	 viewBox="0 0 58.1 52.5" style="enable-background:new 0 0 58.1 52.5;" xml:space="preserve">
<style type="text/css">
	.st0{fill:#005487;}
	.st1{fill:#5FC100;}
</style>
<g>
	<path class="st0" d="M3.7,30.6c1.4,4.8,4.8,8.7,9.4,10.8v0.3c0,2,1.6,3.7,3.7,3.7c1.5,0,2.9-0.9,3.4-2.3h0.3
		c9.6,0,17.4-7.8,17.4-17.4c0-3.2-0.9-6.3-2.5-9c1.4-1.4,1.4-3.7,0-5.2c-1.4-1.4-3.6-1.4-5-0.2c-7.9-5.5-18.7-3.5-24.2,4.4
		c-1.7,2.5-2.8,5.4-3,8.4c-1.7,0.8-2.5,2.8-1.7,4.6C1.8,29.6,2.7,30.4,3.7,30.6 M13.8,39.6c-3.8-1.8-6.7-5.1-8-9.1
		c0.3-0.1,0.5-0.2,0.7-0.4c1.9,1.1,4.5,1.8,7.3,2.3c0.3,2,0.9,4.1,1.6,6C14.7,38.6,14.2,39,13.8,39.6L13.8,39.6z M25.7,26.4
		c-2.1,0.3-3.6,2-3.6,4.1v0.4c-0.6,0-1.1,0-1.7,0c-1.7,0-3.3-0.1-5-0.3c-0.2-1.7-0.3-3.3-0.3-5c0-0.9,0-1.7,0.1-2.5
		c1.5-0.2,2.7-1.3,3.1-2.7c0.7,0,1.4-0.1,2.1-0.1c1.7,0,3.3,0.1,5,0.3c0.2,1.7,0.3,3.3,0.3,5C25.7,25.9,25.7,26.2,25.7,26.4
		 M26.2,28.3c1.2,0,2.2,1,2.2,2.2s-1,2.2-2.2,2.2c-1.2,0-2.2-1-2.2-2.2C24.1,29.3,25,28.4,26.2,28.3L26.2,28.3z M14.7,21.3
		c-1,0-1.9-0.8-1.9-1.9c0-1,0.8-1.9,1.9-1.9c1,0,1.8,0.8,1.9,1.8C16.5,20.4,15.7,21.3,14.7,21.3L14.7,21.3z M13.3,23
		c-0.1,0.9-0.1,1.8-0.1,2.7c0,1.6,0.1,3.1,0.3,4.7c-2-0.3-3.9-0.9-5.7-1.8c0.7-1.8-0.1-3.8-1.9-4.5c0,0,0,0,0,0c1-1,3-2,5.6-2.6
		C11.9,22.1,12.5,22.7,13.3,23 M16.7,43.4c-0.9,0-1.7-0.8-1.7-1.7c0-0.9,0.8-1.7,1.7-1.7s1.7,0.8,1.7,1.7
		C18.4,42.7,17.7,43.4,16.7,43.4 M20.4,41.1L20.4,41.1c-0.4-1.5-1.5-2.7-3-3c-0.8-1.8-1.4-3.6-1.7-5.5c1.6,0.2,3.1,0.3,4.7,0.3
		c0.8,0,1.6,0,2.4-0.1c0.5,0.7,1.1,1.3,1.9,1.6C23.7,38.6,22,41.1,20.4,41.1L20.4,41.1z M24.2,40.7c1-1.5,1.9-3.6,2.4-6
		c1.7-0.2,3-1.3,3.5-2.9c1.9-0.4,3.6-1.2,5.2-2.2C34,35,29.7,39.2,24.2,40.7L24.2,40.7z M30.3,29.7c-0.3-1.4-1.3-2.5-2.6-3v-1
		c0-1.6-0.1-3.1-0.3-4.7c5.2,1,8.5,2.9,8.5,4.7C35.9,27.1,33.8,28.6,30.3,29.7 M32.8,12.4c0.9,0,1.7,0.8,1.7,1.7
		c0,0.9-0.8,1.7-1.7,1.7c-0.9,0-1.7-0.8-1.7-1.7C31.1,13.2,31.8,12.4,32.8,12.4 M29.3,13c-0.6,1.9,0.4,4,2.3,4.6
		c0.7,0.2,1.4,0.2,2,0.1c0.8,1.3,1.4,2.7,1.8,4.2c-2-1.4-5-2.3-8.3-2.9c-0.5-3.3-1.5-6.3-2.9-8.3C26.1,11.1,27.8,11.9,29.3,13
		L29.3,13z M20.4,10.2c1.8,0,3.7,3.3,4.7,8.5c-1.6-0.2-3.1-0.3-4.7-0.3c-0.7,0-1.4,0-2.1,0.1c-0.3-1.1-1-2-2-2.5
		C17.4,12.4,19,10.2,20.4,10.2 M8.1,16.3c2.1-2.8,5.1-4.8,8.5-5.6c-1,1.5-1.7,3.2-2.1,4.9c-2,0.1-3.6,1.8-3.6,3.8v0.2
		c-1.9,0.4-3.8,1.2-5.4,2.3C6,19.8,6.9,18,8.1,16.3 M4.5,25.8c0.8,0,1.5,0.7,1.5,1.5c0,0.8-0.7,1.5-1.5,1.5S3,28.1,3,27.3v0
		C3,26.4,3.7,25.8,4.5,25.8"/>
	<path class="st1" d="M42.5,23.2c-0.8,0-1.2,0-1.3-0.2C41,23,41,22.5,41,21.7c0-0.8,0.1-1.2,0.2-1.3c0.2-0.2,0.5-0.2,0.9,0.1
		c0.5,0.2,0.8,0.4,1,0.7c0.2,0.2,0.4,0.6,0.7,1c0.2,0.5,0.2,0.8,0.1,0.9C43.7,23.2,43.3,23.2,42.5,23.2 M45.5,23.1
		c0,0-0.1-0.2-0.1-0.5c-0.1-0.3-0.2-0.7-0.4-1.2c-0.2-0.5-0.5-0.9-0.8-1.2c-0.4-0.4-0.8-0.6-1.2-0.8c-0.5-0.2-0.9-0.3-1.2-0.4
		c-0.3-0.1-0.5-0.1-0.5-0.1C41,18.6,41,18.2,41,17.3c0-0.8,0-1.3,0.1-1.4c0.1-0.1,0.2-0.1,0.3-0.1c0.8,0,1.7,0.2,2.6,0.6
		c0.9,0.4,1.6,0.9,2.2,1.5c0.6,0.6,1.1,1.4,1.5,2.2c0.4,0.9,0.6,1.7,0.6,2.6c0,0.1,0,0.2-0.1,0.3c-0.1,0.1-0.5,0.1-1.4,0.1
		C46,23.2,45.6,23.2,45.5,23.1 M54.3,23.1c-0.1-0.1-0.1-0.1-0.1-0.2c-0.1-1.8-0.5-3.4-1.1-4.9c-0.6-1.5-1.5-2.8-2.7-4
		c-1.2-1.2-2.6-2.1-4-2.7c-1.5-0.6-3.1-1-4.9-1.1c-0.1,0-0.2,0-0.3-0.1C41,9.8,41,9.4,41,8.6c0-0.8,0-1.3,0.1-1.4
		c0.1-0.1,0.2-0.1,0.3-0.1c2,0,4,0.4,5.9,1.3c1.9,0.8,3.6,2,5.1,3.4c1.4,1.4,2.6,3.1,3.4,5.1c0.8,1.9,1.3,3.9,1.3,5.9
		c0,0.1,0,0.2-0.1,0.3c-0.1,0.1-0.6,0.1-1.4,0.1C54.8,23.2,54.4,23.2,54.3,23.1 M49.9,23.1c-0.1-0.1-0.1-0.1-0.1-0.3
		c-0.2-1.3-0.4-2.4-0.8-3.3c-0.4-0.9-0.9-1.7-1.8-2.6c-0.5-0.5-1-0.9-1.6-1.2S44.5,15.2,44,15c-0.5-0.2-1-0.3-1.4-0.4
		c-0.4-0.1-0.8-0.2-1.1-0.2c-0.3,0-0.4-0.1-0.4-0.1C41,14.2,41,13.8,41,13c0-0.8,0-1.3,0.1-1.4c0.1-0.1,0.1-0.1,0.3-0.1
		c1.4,0,2.8,0.3,4.2,0.9c1.4,0.6,2.6,1.4,3.7,2.5c1,1,1.9,2.2,2.5,3.6c0.6,1.4,0.9,2.8,0.9,4.2c0,0.1,0,0.2-0.1,0.3
		c-0.1,0.1-0.5,0.1-1.4,0.1C50.4,23.2,50,23.2,49.9,23.1"/>
</g>
</svg>
