<svg id="Layer_1" data-name="Layer 1" xmlns="http://www.w3.org/2000/svg" viewBox="0 0 39.86 38.53"><defs><style>.cls-1{fill:#005487;}.cls-2{fill:#b7b7b7;}</style></defs><title>default-icon</title><path class="cls-1" d="M28.79,28.68L24.1,34.54A4.13,4.13,0,1,1,20.6,31l5.85-4.69a1.67,1.67,0,0,1,2.34,2.34" transform="translate(-0.07 -0.74)"/><path class="cls-1" d="M38.83,35.09a18.79,18.79,0,0,0-37.58,0A1.72,1.72,0,0,0,3,36.81H7.22a1.74,1.74,0,0,0,0-3.49H5.11a15,15,0,0,1,3.15-7.58l1.48,1.49a1.75,1.75,0,0,0,2.47-2.47L10.72,23.3a15,15,0,0,1,7.58-3.15v2.11a1.74,1.74,0,1,0,3.48.17,1.22,1.22,0,0,0,0-.17v-2.1A15,15,0,0,1,35,33.35H32.87a1.74,1.74,0,0,0,0,3.49h4.21a1.75,1.75,0,0,0,1.75-1.74" transform="translate(-0.07 -0.74)"/><path class="cls-2" d="M39.93,4v16a1.83,1.83,0,0,1-3.13,1.3l0,0A1.89,1.89,0,0,1,36.2,20v-9.4H3.8v9.51a1.86,1.86,0,0,1-.56,1.32l0,0A1.84,1.84,0,0,1,.07,20.16V4A3.3,3.3,0,0,1,3.37.74H36.63A3.31,3.31,0,0,1,39.93,4M7,5.67A1.67,1.67,0,1,0,5.35,7.35h0A1.67,1.67,0,0,0,7,5.68H7Zm5,0A1.67,1.67,0,1,0,10.3,7.35,1.67,1.67,0,0,0,12,5.67h0Zm5,0a1.67,1.67,0,1,0-1.67,1.68,1.67,1.67,0,0,0,1.67-1.68h0Z" transform="translate(-0.07 -0.74)"/></svg>