<svg id="Layer_1" data-name="Layer 1" xmlns="http://www.w3.org/2000/svg" viewBox="0 0 58 22.7"><defs><style>.cls-1{fill:#005487;}</style></defs><title>display-count</title><path class="cls-1" d="M56.48,33.78H26.22c-2.52,0-2.52,0-2.52,2.52v2.52c0,2.52,0,2.52,2.52,2.52H56.48c2.52,0,2.52,0,2.52-2.52V36.3C59,33.78,59,33.78,56.48,33.78Zm0-15.13H26.22c-2.52,0-2.52,0-2.52,2.52V23.7c0,2.52,0,2.52,2.52,2.52H56.48c2.52,0,2.52,0,2.52-2.52V21.17C59,18.65,59,18.65,56.48,18.65Zm-44.13,0H2.26L1,25H6V41.35h6.3V18.65Z" transform="translate(-1 -18.65)"/></svg>