<svg id="Layer_1" data-name="Layer 1" xmlns="http://www.w3.org/2000/svg" viewBox="0 0 56.92 54.79"><defs><style>.cls-1{fill:#005487;}.cls-2{fill:#fba723;}.cls-3{fill:#aa241d;}</style></defs><title>donut-chart</title><path class="cls-1" d="M38,44.33A1.22,1.22,0,0,0,36.5,44a15.9,15.9,0,0,1-8.07,2c-8.5-.2-15.24-7-15-15.17A15.1,15.1,0,0,1,27,16.53a1.16,1.16,0,0,0,1-1.1l0.24-9.29A1.16,1.16,0,0,0,27.13,5C13.41,4.65,1.93,16.11,1.55,30.54S13.09,57,28.12,57.38c6.73,0.17,10.39-.92,15.1-4.45a1.1,1.1,0,0,0,.22-1.57Z" transform="translate(-1.54 -2.61)"/><path class="cls-2" d="M31.19,14c8.5,0,15.42,6.64,15.42,14.8a1.17,1.17,0,0,0,1.18,1.14h9.49a1.17,1.17,0,0,0,1.19-1.14c0-14.44-12.24-26.18-27.28-26.18A1.17,1.17,0,0,0,30,3.74v9.11A1.17,1.17,0,0,0,31.19,14" transform="translate(-1.54 -2.61)"/><path class="cls-3" d="M57.28,32.2H47.6a1.18,1.18,0,0,0-1.18,1,14.6,14.6,0,0,1-5.3,9.19A1.1,1.1,0,0,0,41,44l7.09,8.42a1.2,1.2,0,0,0,.84.42H49a1.22,1.22,0,0,0,.81-0.3,25.8,25.8,0,0,0,8.68-19.15,1.16,1.16,0,0,0-1.19-1.14" transform="translate(-1.54 -2.61)"/></svg>