<svg id="Layer_1" data-name="Layer 1" xmlns="http://www.w3.org/2000/svg" viewBox="0 0 56.65 57.24"><defs><style>.cls-1{fill:#a5a5a5;}.cls-2{fill:#fba723;}.cls-3{fill:#005487;}</style></defs><title>dygraph-icon1</title><path class="cls-1" d="M58.33,58H49.77V48.83h8.55v-0.3H49.77V39.33h8.55V39H49.77V29.82h8.55v-0.3H49.77V20.32h8.55V20H49.77V10.82h8.55v-0.3H49.77V1.38h-0.3v9.14H40.27V1.38H40v9.14H30.77V1.38h-0.3v9.14H21.27V1.38H21v9.14H11.76V1.38h-0.3v9.14H2.26V1.38H1.67v57a0.29,0.29,0,0,0,.29.29H58.33V58ZM11.47,58H2.26V48.83h9.21V58Zm0-9.5H2.26V39.33h9.21v9.21Zm0-9.5H2.26V29.82h9.21V39Zm0-9.5H2.26V20.32h9.21v9.21Zm0-9.5H2.26V10.82h9.21V20Zm0.3-9.21H21V20H11.76V10.82Zm0,9.5H21v9.21H11.76V20.32Zm0,9.5H21V39H11.76V29.82ZM21,58H11.76V48.83H21V58Zm0-9.5H11.76V39.33H21v9.21Zm9.5,9.5H21.27V48.83h9.21V58Zm0-9.5H21.27V39.33h9.21v9.21Zm0-9.5H21.27V29.82h9.21V39Zm0-9.5H21.27V20.32h9.21v9.21Zm0-9.5H21.27V10.82h9.21V20ZM40,58H30.77V48.83H40V58Zm0-9.5H30.77V39.33H40v9.21ZM40,39H30.77V29.82H40V39Zm0-9.5H30.77V20.32H40v9.21ZM40,20H30.77V10.82H40V20Zm0.3-9.21h9.21V20H40.27V10.82ZM49.48,58H40.27V48.83h9.21V58Zm0-9.5H40.27V39.33h9.21v9.21Zm0-9.5H40.27V29.82h9.21V39Zm0-9.5H40.27V20.32h9.21v9.21Z" transform="translate(-1.67 -1.38)"/><path class="cls-2" d="M58.33,39.1H55.45a24.91,24.91,0,1,0-49.82,0H2.74A27.79,27.79,0,1,1,58.33,39.1Z" transform="translate(-1.67 -1.38)"/><path class="cls-3" d="M30.54,40A27.82,27.82,0,0,1,2.74,12.22H5.62a24.91,24.91,0,0,0,49.82,0h2.88A27.82,27.82,0,0,1,30.54,40Z" transform="translate(-1.67 -1.38)"/></svg>