<svg id="Layer_1" data-name="Layer 1" xmlns="http://www.w3.org/2000/svg" viewBox="0 0 57.29 28.64"><defs><style>.cls-1{fill:#d6d6d6;}.cls-2{fill:#5fc100;}.cls-3{fill:#005386;}</style></defs><title>gauge</title><path class="cls-1" d="M58.65,44.32H47.93a17.93,17.93,0,0,0-30.6-12.68L9.74,24.07a28.65,28.65,0,0,1,48.9,20.25" transform="translate(-1.35 -15.68)"/><path class="cls-2" d="M12.07,44.32H1.35A28.45,28.45,0,0,1,9.74,24.07l7.58,7.58a17.81,17.81,0,0,0-5.25,12.68" transform="translate(-1.35 -15.68)"/><path class="cls-3" d="M17.93,42.68l0.88-1.2a2.61,2.61,0,0,0,1.8.83,1.1,1.1,0,0,0,1.33-1c0-.73-0.43-1.18-2.21-1.18V38.82c1.48,0,1.94-.44,1.94-1.1a0.87,0.87,0,0,0-1-.9,2.28,2.28,0,0,0-1.54.72l-1-1.17a3.85,3.85,0,0,1,2.59-1c1.69,0,2.83.82,2.83,2.25a1.93,1.93,0,0,1-1.37,1.82v0.05a2,2,0,0,1,1.63,2c0,1.53-1.4,2.39-3.06,2.39a3.58,3.58,0,0,1-2.86-1.16" transform="translate(-1.35 -15.68)"/><path class="cls-3" d="M25,39.55c0-2.8,1.18-4.23,2.94-4.23s2.94,1.44,2.94,4.23-1.18,4.29-2.94,4.29S25,42.35,25,39.55m4.08,0c0-2.25-.49-2.75-1.14-2.75s-1.14.5-1.14,2.75,0.51,2.82,1.14,2.82S29,41.79,29,39.55" transform="translate(-1.35 -15.68)"/><path class="cls-3" d="M31.64,37.77c0-1.68.88-2.66,2.1-2.66s2.11,1,2.11,2.66S35,40.46,33.74,40.46s-2.1-1-2.1-2.69m2.87,0c0-1.2-.35-1.6-0.78-1.6s-0.78.4-.78,1.6,0.35,1.63.78,1.63,0.78-.43.78-1.63m4.06-2.66h1.1l-4.56,8.74H34Zm-0.71,6.05c0-1.68.88-2.66,2.1-2.66s2.11,1,2.11,2.66S41.18,43.85,40,43.85s-2.1-1-2.1-2.69m2.87,0c0-1.2-.35-1.6-0.78-1.6s-0.78.4-.78,1.6,0.35,1.63.78,1.63,0.78-.43.78-1.63" transform="translate(-1.35 -15.68)"/></svg>