<?xml version="1.0" encoding="utf-8"?>
<!-- Generator: Adobe Illustrator 19.2.1, SVG Export Plug-In . SVG Version: 6.00 Build 0)  -->
<svg version="1.1" id="Layer_1" xmlns="http://www.w3.org/2000/svg" xmlns:xlink="http://www.w3.org/1999/xlink" x="0px" y="0px"
	 viewBox="0 0 58.1 52.5" style="enable-background:new 0 0 58.1 52.5;" xml:space="preserve">
<style type="text/css">
	.st0{fill-rule:evenodd;clip-rule:evenodd;fill:#5FC100;}
	.st1{fill:#005487;}
	.st2{fill:#FFA500;}
</style>
<g>
	<path class="st0" d="M31.1,51.4C17.5,51.4,6.6,40.8,6,27.2C5.9,26.5,5.4,26,4.7,26H2l6.4-7.3l6.4,7.3h-3.1c-0.4,0-0.7,0.2-0.9,0.4
		c-0.3,0.3-0.4,0.6-0.4,1c0.6,11,9.7,19.5,20.7,19.5c11.4,0,20.7-9.2,20.7-20.7c0-11-8.6-20-19.4-20.7V1.2
		c13.2,0.7,23.8,11.7,23.8,25C56.1,40.1,44.9,51.4,31.1,51.4"/>
	<path class="st1" d="M44.9,40.1c-0.1,0-0.2,0-0.3,0l-29.3-8.2c-0.6-0.2-1-0.8-0.8-1.5l0.7-2.7c0.1-0.5,0.5-0.8,1-0.9
		c0,0,3.4-0.7,5.6-2.5c1.1-0.9,1.6-2.1,2.4-4c0.4-1,1-2.1,1.7-3.5c2.4-4.6,8.4-4.8,10.8-4.2c2.6,0.7,7.3,4.1,7,9.2
		c-0.1,1.5-0.3,2.8-0.4,3.9c-0.3,2.1-0.4,3.3,0,4.7c0.9,2.7,3.4,5,3.5,5c0.4,0.3,0.5,0.8,0.3,1.3l-0.8,2.7
		C45.9,39.7,45.4,40.1,44.9,40.1 M17.1,29.8l27,7.6l0.3-0.9c-0.9-1-2.8-3-3.6-5.5c-0.6-1.9-0.4-3.5-0.1-5.7c0.1-1,0.3-2.2,0.4-3.7
		c0.3-3.8-3.5-6.3-5.2-6.7c-1.5-0.4-6.2-0.4-8,3c-0.7,1.3-1.2,2.4-1.6,3.4c-0.9,2.1-1.6,3.6-3.1,4.8c-2,1.7-4.6,2.5-5.9,2.8
		L17.1,29.8z"/>
	<path class="st1" d="M29.9,41.2c-2.5,0-4.6-2.1-4.6-4.6c0-0.2,0-0.3,0-0.4c0-0.2,0.1-0.4,0.3-0.5c0.2-0.1,0.4-0.2,0.6-0.1l7.4,2
		c0.2,0.1,0.4,0.2,0.5,0.4c0.1,0.2,0.1,0.4,0,0.6C33.4,40.1,31.7,41.2,29.9,41.2 M26.9,37.1c0.3,1.4,1.6,2.5,3.1,2.5
		c0.9,0,1.8-0.4,2.4-1.1L26.9,37.1z"/>
	<path class="st1" d="M38.8,12.4c-0.1,0-0.1,0-0.2,0l-3.1-0.8c-0.2-0.1-0.4-0.2-0.5-0.4c-0.1-0.2-0.1-0.4,0-0.6
		c0.4-0.8,1.2-1.4,2.1-1.4c0.6,0,1.2,0.2,1.7,0.7c0.4,0.4,0.7,1,0.7,1.6c0,0,0,0.2,0,0.2c0,0.2-0.1,0.4-0.3,0.5
		C39.1,12.3,38.9,12.4,38.8,12.4"/>
	<path class="st2" d="M21.1,29.3c1.1-0.5,2.2-1.1,3.1-2c1.8-1.5,2.5-3.2,3.5-5.4c0.4-1,0.9-2,1.6-3.3c1.1-2.2,4-2.3,4.9-2.3
		c0.6,0,1,0.1,1.3,0.1c1.2,0.3,4.1,2.3,4,5c-0.1,1.4-0.2,2.6-0.4,3.6c-0.3,2.4-0.5,4.2,0.2,6.4c0.4,1.2,1,2.3,1.7,3.3L21.1,29.3z"/>
</g>
</svg>
