<svg id="Layer_1" data-name="Layer 1" xmlns="http://www.w3.org/2000/svg" viewBox="0 0 57.42 53.4"><defs><style>.cls-1{fill:#005487;}</style></defs><title>line-chart</title><path class="cls-1" d="M53.28,2.72A3,3,0,0,0,51,7.59L43.71,25.17a3,3,0,0,0-1.09.33l-4.91-3.3c0-.1,0-0.2,0-0.3a3,3,0,1,0-5.58,1.44l-6.42,9.93H25.49a3,3,0,0,0-1.19.25l-5.14-4a3,3,0,0,0,0-.51,3,3,0,1,0-5.55,1.5L7.13,41.16H7a3,3,0,1,0,3,3,3,3,0,0,0-.41-1.5l6.53-10.69h0.16a3,3,0,0,0,1.19-.25l5.14,4a3.05,3.05,0,0,0,0,.51A3,3,0,1,0,28.1,34.8l6.42-9.93h0.24a3,3,0,0,0,1.39-.35l4.91,3.3c0,0.1,0,.2,0,0.29a3,3,0,1,0,5.28-1.89L53.58,8.66a3,3,0,0,0-.3-5.94" transform="translate(-1.09 -2.72)"/><rect class="cls-1" y="50.38" width="57.42" height="3.02"/></svg>