<svg id="Layer_1" data-name="Layer 1" xmlns="http://www.w3.org/2000/svg" viewBox="0 0 57.06 19.8"><defs><style>.cls-1{fill:#fff;}.cls-2{fill:#005487;}</style></defs><title>odometer</title><rect class="cls-1" x="2.13" y="1.21" width="52.81" height="16.4"/><path class="cls-2" d="M46.86,20.63a1.06,1.06,0,0,0-1,1.07h0A7.42,7.42,0,0,0,47.7,27.1a3.2,3.2,0,0,0,4.66,0,7.36,7.36,0,0,0,1.93-5.37,1.07,1.07,0,0,0-2.13,0,5.73,5.73,0,0,1-1.26,3.84,1.18,1.18,0,0,1-.84.41,1.25,1.25,0,0,1-.86-0.44,5.74,5.74,0,0,1-1.25-3.85,1.06,1.06,0,0,0-1-1.09h0" transform="translate(-1.47 -20.1)"/><path class="cls-2" d="M50.08,30.13a3.61,3.61,0,0,0-2.83,1.54A8.58,8.58,0,0,0,46.14,39a1.06,1.06,0,0,0,2-.57A7,7,0,0,1,48.94,33a1.24,1.24,0,0,1,2.25,0,7.11,7.11,0,0,1,.72,5.48,1.06,1.06,0,1,0,2,.76A1.21,1.21,0,0,0,53.95,39a8.64,8.64,0,0,0-1.07-7.32,3.63,3.63,0,0,0-2.8-1.58" transform="translate(-1.47 -20.1)"/><path class="cls-2" d="M2.42,20.1a1.06,1.06,0,0,0-1,1.06v17.6a1.07,1.07,0,0,0,1.07,1.07H57.47a1.06,1.06,0,0,0,1.06-1.07V21.16a1.06,1.06,0,0,0-1.06-1.06h-55ZM3.6,22.23H56.41V37.71H3.6V22.23Z" transform="translate(-1.47 -20.1)"/><rect class="cls-2" x="40.1" y="1.21" width="2.13" height="17.49"/><path class="cls-2" d="M7.62,35V33.6l2.44-2.44q0.69-.68,1.1-1.18a6.92,6.92,0,0,0,.64-0.89,2.63,2.63,0,0,0,.29-0.72,3.25,3.25,0,0,0,.07-0.69,1.65,1.65,0,0,0-.1-0.55,1.26,1.26,0,0,0-.28-0.46,1.33,1.33,0,0,0-.46-0.31,1.64,1.64,0,0,0-.63-0.11,2.47,2.47,0,0,0-1.13.26,4.18,4.18,0,0,0-1,.71l-1-1.31a5.59,5.59,0,0,1,1.51-1,4.41,4.41,0,0,1,1.82-.38,4.48,4.48,0,0,1,1.37.2,2.92,2.92,0,0,1,1.05.57,2.56,2.56,0,0,1,.68.95,3.34,3.34,0,0,1,.24,1.31,3.88,3.88,0,0,1-.16,1.15,4.44,4.44,0,0,1-.48,1,7,7,0,0,1-.78,1q-0.46.51-1.05,1.07l-1.5,1.43h4.35V35h-7Z" transform="translate(-1.47 -20.1)"/><path class="cls-2" d="M24.62,32.92V35H22.74v-2.1h-4.8V31.27l4-6.56h2.65v6.52h1.56v1.7H24.62Zm-1.85-6.35-2.93,4.66h2.93V26.57Z" transform="translate(-1.47 -20.1)"/><polygon class="cls-2" points="29.62 14.91 29.62 13.2 32.25 13.2 32.25 6.58 29.96 7.83 29.33 6.27 32.61 4.54 34.23 4.54 34.23 13.2 36.49 13.2 36.49 14.91 29.62 14.91"/></svg>