<svg id="Layer_1" data-name="Layer 1" xmlns="http://www.w3.org/2000/svg" viewBox="0 0 45.67 49.08"><defs><style>.cls-1{fill:#fff;}</style></defs><title>presentation</title><path class="cls-1" d="M25.65,40.2a1.78,1.78,0,0,1-1.78-1.78V34.66l-14.39,0c-4.3,0-5.69-.37-5.69-4.82V11.35a1.78,1.78,0,0,1,3.56,0V29.88c0,0.35,0,.87,0,1.22,0.48,0,1.3,0,2.1,0l16.18,0h0a1.78,1.78,0,0,1,1.78,1.78v5.54a1.78,1.78,0,0,1-1.78,1.78" transform="translate(-2.3 -0.46)"/><path class="cls-1" d="M40.55,49.54a1.76,1.76,0,0,1-.92-0.26L25.17,40.52,11.72,49.25a1.78,1.78,0,0,1-1.94-3l14.38-9.34a1.79,1.79,0,0,1,1.89,0l15.42,9.34a1.78,1.78,0,0,1-.92,3.3" transform="translate(-2.3 -0.46)"/><path class="cls-1" d="M41.35,34.72l-0.45,0h-9.1a1.78,1.78,0,0,1,0-3.56H41l0.27,0A1.19,1.19,0,0,0,42,31a1.58,1.58,0,0,0,.29-1.1V11.34A1.78,1.78,0,0,1,44.1,9.57h0.31V6.68H5.86V9.57H34a1.78,1.78,0,1,1,0,3.56H4.08A1.78,1.78,0,0,1,2.3,11.35V4.91A1.78,1.78,0,0,1,4.08,3.13H46.19A1.78,1.78,0,0,1,48,4.91v6.44a1.78,1.78,0,0,1-1.78,1.78H45.88V29.88a4.75,4.75,0,0,1-1.53,3.8,4.59,4.59,0,0,1-3,1" transform="translate(-2.3 -0.46)"/><path class="cls-1" d="M29.54,4h-9.1a1.78,1.78,0,1,1,0-3.56h9.1a1.78,1.78,0,1,1,0,3.56" transform="translate(-2.3 -0.46)"/></svg>