<svg id="Layer_1" data-name="Layer 1" xmlns="http://www.w3.org/2000/svg" viewBox="0 0 24.78 56.67"><defs><style>.cls-1{fill:#005487;}</style></defs><title>thermometer</title><path class="cls-1" d="M30,52.66a6.71,6.71,0,1,1,6.7-6.71A6.72,6.72,0,0,1,30,52.66M30,41a4.92,4.92,0,1,0,4.92,4.92A4.93,4.93,0,0,0,30,41" transform="translate(-17.61 -1.67)"/><path class="cls-1" d="M30,58.33a12.38,12.38,0,0,1-6.62-22.85V8.05a6.4,6.4,0,0,1,6.39-6.39h0.42a6.39,6.39,0,0,1,6.38,6.39v27.4A12.38,12.38,0,0,1,30,58.33M29.76,5.24A2.81,2.81,0,0,0,27,8.05V36.52a1.79,1.79,0,0,1-1,1.59,8.81,8.81,0,1,0,8,0,1.8,1.8,0,0,1-1-1.6V8.05a2.81,2.81,0,0,0-2.8-2.81H29.76Z" transform="translate(-17.61 -1.67)"/><path class="cls-1" d="M30,41a0.9,0.9,0,0,1-.9-0.89V24.47a0.9,0.9,0,0,1,1.79,0V40.14A0.9,0.9,0,0,1,30,41" transform="translate(-17.61 -1.67)"/></svg>