<?xml version="1.0" encoding="utf-8"?>
<!-- Generator: Adobe Illustrator 19.2.1, SVG Export Plug-In . SVG Version: 6.00 Build 0)  -->
<svg version="1.1" id="Layer_1" xmlns="http://www.w3.org/2000/svg" xmlns:xlink="http://www.w3.org/1999/xlink" x="0px" y="0px"
	 viewBox="0 0 58.1 52.5" style="enable-background:new 0 0 58.1 52.5;" xml:space="preserve">
<style type="text/css">
	.st0{fill:#005487;}
	.st1{fill:#9E9E9E;}
	.st2{fill:#FFA500;}
</style>
<g>
	<path class="st0" d="M47.3,50H18.9c-0.7,0-1.2-0.5-1.2-1.2V19.1c0-0.7,0.5-1.2,1.2-1.2h28.4c0.7,0,1.2,0.5,1.2,1.2v29.7
		C48.5,49.5,48,50,47.3,50 M20.1,47.6h26V20.3h-26V47.6z"/>
	<path class="st0" d="M51.2,28.6c-0.7,0-1.2-0.5-1.2-1.2v-3.8c0-0.7,0.5-1.2,1.2-1.2c0.7,0,1.2,0.5,1.2,1.2v3.8
		C52.4,28,51.8,28.6,51.2,28.6"/>
	<path class="st0" d="M51.1,46c-0.7,0-1.2-0.5-1.2-1.2V41c0-0.7,0.5-1.2,1.2-1.2c0.7,0,1.2,0.5,1.2,1.2v3.8
		C52.3,45.4,51.7,46,51.1,46"/>
	<path class="st0" d="M15.1,29.5c-0.7,0-1.2-0.5-1.2-1.2v-5.7c0-0.7,0.5-1.2,1.2-1.2c0.7,0,1.2,0.5,1.2,1.2v5.7
		C16.2,29,15.7,29.5,15.1,29.5"/>
	<path class="st0" d="M15.1,46.2c-0.7,0-1.2-0.5-1.2-1.2v-5.7c0-0.7,0.5-1.2,1.2-1.2c0.7,0,1.2,0.5,1.2,1.2V45
		C16.2,45.7,15.7,46.2,15.1,46.2"/>
	<rect x="25.7" y="26.1" class="st1" width="14.8" height="9.6"/>
	<path class="st0" d="M40.5,36.4H25.7c-0.4,0-0.8-0.3-0.8-0.8v-9.6c0-0.4,0.3-0.8,0.8-0.8h14.8c0.4,0,0.8,0.3,0.8,0.8v9.6
		C41.3,36.1,40.9,36.4,40.5,36.4 M26.5,34.9h13.3v-8H26.5V34.9z"/>
	<path class="st0" d="M39.4,16.7c-0.7,0-1.2-0.5-1.2-1.2v-7c0-0.7,0.5-1.2,1.2-1.2c0.7,0,1.2,0.5,1.2,1.2v7
		C40.5,16.2,40,16.7,39.4,16.7"/>
	<path class="st2" d="M10.8,45.1c-0.7,0-1.2-0.5-1.2-1.2V14.2c0-0.7,0.5-1.2,1.2-1.2h23.7c0.7,0,1.2,0.5,1.2,1.2
		c0,0.7-0.5,1.2-1.2,1.2H12v28.5C12,44.6,11.4,45.1,10.8,45.1"/>
	<path class="st2" d="M7,24.6c-0.7,0-1.2-0.5-1.2-1.2v-5.7c0-0.7,0.5-1.2,1.2-1.2c0.7,0,1.2,0.5,1.2,1.2v5.7
		C8.1,24.1,7.6,24.6,7,24.6"/>
	<path class="st2" d="M7,41.3c-0.7,0-1.2-0.5-1.2-1.2v-5.7c0-0.7,0.5-1.2,1.2-1.2c0.7,0,1.2,0.5,1.2,1.2v5.7
		C8.1,40.8,7.6,41.3,7,41.3"/>
	<path class="st2" d="M31.2,11.8c-0.7,0-1.2-0.5-1.2-1.2v-7c0-0.7,0.5-1.2,1.2-1.2c0.7,0,1.2,0.5,1.2,1.2v7
		C32.4,11.3,31.9,11.8,31.2,11.8"/>
</g>
</svg>
