<svg id="Layer_1" data-name="Layer 1" xmlns="http://www.w3.org/2000/svg" viewBox="0 0 57.72 53.45"><defs><style>.cls-1{fill:#0071aa;}.cls-2{fill:#005487;}</style></defs><title>wind-rose</title><path class="cls-1" d="M30.44,52.05v-24L47.76,45a26.93,26.93,0,0,1-17.32,7.07" transform="translate(-1.14 -3.28)"/><path class="cls-2" d="M17.11,35.48c-2.73,3-5.62,6-8.84,9.1-5-4.25-6.9-10.27-7.13-17H13.81a13.56,13.56,0,0,0,3.31,7.88" transform="translate(-1.14 -3.28)"/><path class="cls-1" d="M33,27.51H54.1A20.71,20.71,0,0,1,48,42.09L33,27.51" transform="translate(-1.14 -3.28)"/><path class="cls-2" d="M11.27,9.73l16,15.59H4.67c-0.41-4.65,2.57-11.78,6.6-15.59" transform="translate(-1.14 -3.28)"/><path class="cls-1" d="M13.93,42.79l14.33-14.6V47.8c-5.4-.16-10.26-1.61-14.33-5" transform="translate(-1.14 -3.28)"/><path class="cls-2" d="M12.5,43.82a24.12,24.12,0,0,0,15.79,5.79v7.11A31.64,31.64,0,0,1,8,48.66l4.47-4.84" transform="translate(-1.14 -3.28)"/><path class="cls-2" d="M43.58,14a17.76,17.76,0,0,1,4.67,11.37H40.58a11.25,11.25,0,0,0-2.46-5.91L43.58,14" transform="translate(-1.14 -3.28)"/><path class="cls-1" d="M40.28,14.56l-9.79,9.25V10.28a16.47,16.47,0,0,1,9.79,4.28" transform="translate(-1.14 -3.28)"/><path class="cls-1" d="M19.2,13.73a16.53,16.53,0,0,1,9-3.56V23l-9-9.3" transform="translate(-1.14 -3.28)"/><path class="cls-2" d="M28.3,3.28V8.39a18.72,18.72,0,0,0-10.8,4.4L14,9A23.19,23.19,0,0,1,28.3,3.28" transform="translate(-1.14 -3.28)"/><path class="cls-2" d="M30.41,56.72V53.8A29.25,29.25,0,0,0,49,46.25c0.39,0.35.75,0.65,1.09,1s0.65,0.7,1,1.12a31,31,0,0,1-20.75,8.38" transform="translate(-1.14 -3.28)"/><path class="cls-2" d="M51.28,45.33l-2.17-2.1a23.9,23.9,0,0,0,6.73-15.66h3a26.78,26.78,0,0,1-7.58,17.76" transform="translate(-1.14 -3.28)"/><path class="cls-1" d="M19,34.53a10.23,10.23,0,0,1-2.87-6.94c0.34,0,.88,0,1.24,0,2.87,0,5.55-.08,8.17-0.08l-6.53,7" transform="translate(-1.14 -3.28)"/><path class="cls-2" d="M43.63,10.63l-2.08,2.29A19.4,19.4,0,0,0,30.43,8.4v-3a22.54,22.54,0,0,1,13.21,5.26" transform="translate(-1.14 -3.28)"/><path class="cls-1" d="M38.73,25.39H32.13l4.61-4.52a8.67,8.67,0,0,1,2,4.52" transform="translate(-1.14 -3.28)"/></svg>