<svg id="Layer_1" data-name="Layer 1" xmlns="http://www.w3.org/2000/svg" viewBox="0 0 29.89 29.7"><defs><style>.cls-1{fill:#fff;}</style></defs><title>wrench</title><path class="cls-1" d="M2.07,28.43a5.63,5.63,0,0,1,0-7.77c1.55-1.58,5.77-5.8,7.17-7.2a10,10,0,0,1,3-10.13A10.11,10.11,0,0,1,18.32.44c1.46-.21,3.41-0.1,4.49.85a1.09,1.09,0,0,1,.05,1.58s-3.76,3.79-4.21,4.27a1.33,1.33,0,0,0-.38.92,1.27,1.27,0,0,0,.28.82c0.5,0.53,2.81,2.83,3.21,3.18a1.5,1.5,0,0,0,.81.38,2.35,2.35,0,0,0,1-.39c0.38-.35,3.67-3.61,4.36-4.3a1.18,1.18,0,0,1,.8-0.32,1.09,1.09,0,0,1,.78.37c0.83,0.93,1.25,3.6.52,5.92a11.66,11.66,0,0,1-4.28,6.12,10.53,10.53,0,0,1-5.39,1.85,14.07,14.07,0,0,1-3.12-.17c-1.33,1.32-5.63,5.59-7.21,7.08a5.47,5.47,0,0,1-3.81,1.45A6,6,0,0,1,2.07,28.43Zm15-9.14a13.3,13.3,0,0,0,3.08.24,8.46,8.46,0,0,0,4.3-1.45,9.51,9.51,0,0,0,3.47-5,6.67,6.67,0,0,0,.25-2.52c-1.24,1.23-2.89,2.86-3.16,3.1a4.31,4.31,0,0,1-2.48,1,3.59,3.59,0,0,1-2.23-.91c-0.51-.44-2.94-2.88-3.38-3.34a3.48,3.48,0,0,1-.87-2.15,3.44,3.44,0,0,1,1-2.57c0.28-.31,1.89-1.94,3-3.1a6.77,6.77,0,0,0-1.56,0A7.93,7.93,0,0,0,13.71,5a8,8,0,0,0-2.19,8.44,1.1,1.1,0,0,1-.25,1.15s-5.74,5.74-7.62,7.65a3.42,3.42,0,0,0,0,4.71A3.79,3.79,0,0,0,8.56,27c1.87-1.77,7.57-7.44,7.57-7.44a1.09,1.09,0,0,1,.77-0.32Z" transform="translate(-0.53 -0.35)"/><path class="cls-1" d="M4,24.54a2,2,0,1,1,2,2A2,2,0,0,1,4,24.54Zm1.09,0a1,1,0,1,0,1-1A1,1,0,0,0,5.06,24.54Z" transform="translate(-0.53 -0.35)"/></svg>