<?xml version="1.0" encoding="utf-8"?>
<!-- Generator: Adobe Illustrator 19.2.1, SVG Export Plug-In . SVG Version: 6.00 Build 0)  -->
<svg version="1.1" id="Layer_1" xmlns="http://www.w3.org/2000/svg" xmlns:xlink="http://www.w3.org/1999/xlink" x="0px" y="0px"
	 viewBox="0 0 29.9 29.7" style="enable-background:new 0 0 29.9 29.7;" xml:space="preserve">
<style type="text/css">
	.st0{fill:#FFFFFF;}
</style>
<title>wrench</title>
<path class="st0" d="M24.2,29.7c-1.4,0-2.8-0.5-3.8-1.5c-1.6-1.5-5.9-5.8-7.2-7.1c-1,0.2-2.1,0.2-3.1,0.2c-1.9-0.1-3.8-0.7-5.4-1.9
	c-2.1-1.5-3.6-3.7-4.3-6.1c-0.7-2.3-0.3-5,0.5-5.9c0.2-0.2,0.5-0.4,0.8-0.4c0.3,0,0.6,0.1,0.8,0.3c0.7,0.7,4,3.9,4.4,4.3
	c0.3,0.2,0.6,0.3,1,0.4c0.3,0,0.6-0.2,0.8-0.4c0.4-0.4,2.7-2.7,3.2-3.2C12,8.3,12.1,8,12.1,7.7c0-0.3-0.1-0.7-0.4-0.9
	c-0.5-0.5-4.2-4.3-4.2-4.3c0,0,0,0,0,0C7.1,2,7.1,1.3,7.6,0.9c1.1-0.9,3-1.1,4.5-0.8c2.3,0.2,4.4,1.3,6.1,2.9c2.8,2.5,4,6.5,3,10.1
	c1.4,1.4,5.6,5.6,7.2,7.2c2.1,2.2,2.1,5.6,0,7.8C27.2,29.1,25.7,29.7,24.2,29.7z M13.5,18.9c0.3,0,0.6,0.1,0.8,0.3
	c0,0,5.7,5.7,7.6,7.4c1.4,1.2,3.5,1.2,4.9,0c1.3-1.3,1.3-3.4,0-4.7c-1.9-1.9-7.6-7.7-7.6-7.7c-0.3-0.3-0.4-0.8-0.3-1.1
	c1-3,0.1-6.3-2.2-8.4c-1.3-1.3-3-2.2-4.8-2.4c-0.5-0.1-1-0.1-1.6,0c1.1,1.2,2.7,2.8,3,3.1c0.7,0.7,1,1.6,1,2.6
	c0,0.8-0.3,1.6-0.9,2.1c-0.4,0.5-2.9,2.9-3.4,3.3c-0.6,0.6-1.4,0.9-2.2,0.9c-0.9-0.1-1.8-0.4-2.5-1c-0.3-0.2-1.9-1.9-3.2-3.1
	c-0.1,0.8,0,1.7,0.3,2.5c0.6,2,1.8,3.8,3.5,5c1.3,0.9,2.8,1.4,4.3,1.5c1,0,2.1,0,3.1-0.2L13.5,18.9z"/>
<path class="st0" d="M24.4,26.2c-1.1,0-2-0.9-2-2s0.9-2,2-2c1.1,0,2,0.9,2,2S25.5,26.2,24.4,26.2z M25.3,24.2
	C25.3,24.2,25.3,24.2,25.3,24.2c0-0.6-0.5-1-1-1c-0.6,0-1,0.4-1,1s0.4,1,1,1S25.3,24.7,25.3,24.2L25.3,24.2z"/>
</svg>
